<svg width="95" height="95" viewBox="0 0 95 95" fill="none" xmlns="http://www.w3.org/2000/svg">
<path d="M43.244 11.115C45.999 11.115 48.773 11.115 51.528 11.115C51.566 11.248 51.68 11.229 51.775 11.229C54.359 11.343 56.943 11.59 59.489 11.989C63.688 12.654 67.83 13.623 71.725 15.371C73.986 16.378 76.095 17.632 77.767 19.494C78.679 20.52 79.23 21.736 79.61 23.028C79.61 39.387 79.61 55.746 79.61 72.105C79.344 72.466 79.325 72.903 79.154 73.302C78.356 75.164 76.969 76.494 75.354 77.615C72.504 79.591 69.293 80.75 65.987 81.643C61.085 82.973 56.088 83.619 51.015 83.809C43.092 84.132 35.283 83.505 27.645 81.244C24.453 80.294 21.394 79.04 18.753 76.95C16.53 75.183 15.333 72.998 15.352 69.996C15.428 54.739 15.39 39.463 15.39 24.206C15.39 23.845 15.39 23.484 15.447 23.142C15.77 20.976 17.081 19.437 18.696 18.107C21.014 16.226 23.712 15.048 26.505 14.117C31.274 12.521 36.176 11.742 41.173 11.343C41.876 11.286 42.579 11.362 43.244 11.115ZM45.372 13.946C43.206 13.927 38.893 14.25 34.618 15.01C30.647 15.713 26.752 16.72 23.142 18.601C21.565 19.418 20.064 20.368 19 21.85C17.993 23.256 18.012 24.605 19 26.03C19.589 26.866 20.349 27.512 21.185 28.082C23.712 29.811 26.543 30.856 29.469 31.673C34.219 33.003 39.083 33.63 43.985 33.839C50.635 34.124 57.228 33.687 63.707 32.167C67.089 31.369 70.376 30.305 73.34 28.424C74.423 27.74 75.411 26.942 76.133 25.859C76.969 24.586 76.969 23.332 76.152 22.04C75.696 21.318 75.107 20.748 74.442 20.235C72.105 18.43 69.426 17.347 66.652 16.511C60.42 14.611 54.017 13.984 45.372 13.946ZM18.297 45.163C18.278 45.334 18.259 45.41 18.259 45.486C18.259 48.754 18.278 52.003 18.278 55.271C18.278 56.069 18.544 56.734 18.962 57.38C19.361 57.969 19.874 58.482 20.425 58.919C22.002 60.192 23.788 61.085 25.65 61.826C31.008 63.916 36.632 64.809 42.332 65.189C47.766 65.55 53.2 65.379 58.596 64.581C62.529 63.992 66.386 63.118 70.053 61.56C72.01 60.724 73.872 59.755 75.373 58.216C76.19 57.38 76.76 56.43 76.76 55.176C76.741 51.946 76.76 48.735 76.76 45.505C76.76 45.41 76.798 45.296 76.627 45.239C74.423 47.101 71.839 48.298 69.141 49.267C63.631 51.205 57.931 52.06 52.136 52.383C44.859 52.782 37.639 52.345 30.533 50.635C26.163 49.571 21.945 48.127 18.297 45.163ZM18.373 29.526C18.221 29.621 18.259 29.735 18.259 29.83C18.259 33.041 18.278 36.271 18.259 39.482C18.259 40.432 18.601 41.23 19.171 41.952C19.551 42.446 20.007 42.883 20.501 43.282C22.363 44.745 24.472 45.714 26.695 46.512C32.737 48.659 39.026 49.438 45.391 49.628C49.533 49.761 53.675 49.552 57.779 49.001C61.864 48.45 65.873 47.576 69.692 46.018C71.763 45.163 73.758 44.156 75.373 42.541C76.247 41.648 76.798 40.641 76.779 39.311C76.741 36.119 76.779 32.908 76.779 29.716C76.779 29.659 76.741 29.621 76.703 29.507C74.917 31.027 72.903 32.091 70.775 32.965C65.797 34.979 60.572 35.948 55.271 36.442C48.545 37.069 41.838 36.917 35.15 35.853C31.236 35.226 27.379 34.295 23.712 32.718C21.774 31.882 19.969 30.856 18.373 29.526ZM76.76 60.857C73.796 63.308 70.395 64.657 66.861 65.702C61.56 67.26 56.126 67.944 50.616 68.134C43.016 68.4 35.511 67.792 28.177 65.702C24.643 64.695 21.28 63.327 18.392 60.952C18.373 60.933 18.316 60.971 18.259 60.971C18.259 64.011 18.354 67.07 18.221 70.11C18.145 72.067 18.981 73.435 20.387 74.594C21.679 75.658 23.142 76.456 24.681 77.121C30.248 79.496 36.119 80.465 42.104 80.864C47.652 81.244 53.181 81.073 58.672 80.256C62.586 79.667 66.424 78.793 70.072 77.254C72.048 76.418 73.929 75.43 75.43 73.872C76.114 73.15 76.741 72.352 76.741 71.307C76.779 67.868 76.76 64.41 76.76 60.857Z" fill="#6633F2"/>
<path d="M45.372 13.946C54.017 13.965 60.42 14.611 66.652 16.511C69.426 17.366 72.124 18.43 74.442 20.235C75.107 20.748 75.696 21.337 76.152 22.04C76.969 23.313 76.95 24.586 76.133 25.859C75.411 26.942 74.423 27.74 73.34 28.424C70.376 30.305 67.089 31.369 63.707 32.167C57.209 33.706 50.635 34.124 43.985 33.839C39.064 33.63 34.219 33.003 29.469 31.673C26.543 30.856 23.712 29.811 21.185 28.082C20.349 27.512 19.589 26.866 19 26.03C18.012 24.624 17.993 23.256 19 21.85C20.064 20.368 21.565 19.418 23.142 18.601C26.752 16.72 30.647 15.713 34.618 15.01C38.893 14.269 43.206 13.946 45.372 13.946Z" fill="#E2DBF8"/>
<path d="M18.297 45.163C21.945 48.127 26.182 49.571 30.552 50.616C37.658 52.326 44.878 52.763 52.155 52.364C57.95 52.041 63.65 51.186 69.16 49.248C71.858 48.298 74.442 47.082 76.646 45.22C76.817 45.277 76.779 45.391 76.779 45.486C76.779 48.716 76.741 51.927 76.779 55.157C76.798 56.411 76.228 57.361 75.392 58.197C73.891 59.736 72.029 60.705 70.072 61.541C66.405 63.099 62.548 63.973 58.615 64.562C53.219 65.36 47.785 65.531 42.351 65.17C36.651 64.809 31.027 63.916 25.669 61.807C23.788 61.085 22.002 60.192 20.444 58.9C19.893 58.444 19.38 57.95 18.981 57.361C18.544 56.734 18.278 56.05 18.297 55.252C18.316 51.984 18.297 48.735 18.278 45.467C18.259 45.41 18.278 45.334 18.297 45.163ZM59.679 56.791C58.9 56.772 58.235 57.418 58.216 58.197C58.197 58.976 58.862 59.641 59.641 59.641C60.401 59.641 61.028 59.014 61.066 58.254C61.085 57.456 60.458 56.81 59.679 56.791ZM72.485 55.328C72.485 54.549 71.801 53.903 71.041 53.922C70.281 53.941 69.654 54.587 69.654 55.347C69.654 56.126 70.319 56.791 71.079 56.791C71.858 56.772 72.504 56.126 72.485 55.328ZM63.954 56.734C63.935 57.513 64.524 58.14 65.284 58.178C66.101 58.216 66.747 57.608 66.785 56.81C66.804 56.05 66.215 55.404 65.436 55.366C64.638 55.347 63.973 55.936 63.954 56.734Z" fill="#FDFDFD"/>
<path d="M18.373 29.526C19.969 30.856 21.774 31.882 23.693 32.699C27.36 34.276 31.198 35.207 35.131 35.834C41.819 36.898 48.526 37.069 55.252 36.423C60.572 35.929 65.778 34.96 70.756 32.946C72.884 32.091 74.898 31.008 76.684 29.488C76.722 29.583 76.76 29.64 76.76 29.697C76.76 32.889 76.722 36.1 76.76 39.292C76.779 40.603 76.228 41.629 75.354 42.522C73.739 44.137 71.763 45.144 69.673 45.999C65.854 47.576 61.826 48.431 57.76 48.982C53.656 49.552 49.514 49.742 45.372 49.609C39.007 49.419 32.718 48.64 26.676 46.493C24.472 45.714 22.344 44.745 20.482 43.263C19.988 42.864 19.532 42.446 19.152 41.933C18.582 41.211 18.24 40.413 18.24 39.463C18.259 36.252 18.24 33.022 18.24 29.811C18.259 29.735 18.221 29.621 18.373 29.526ZM65.379 42.484C66.177 42.484 66.804 41.819 66.785 41.04C66.766 40.28 66.139 39.653 65.379 39.634C64.6 39.615 63.954 40.28 63.954 41.059C63.954 41.876 64.581 42.503 65.379 42.484ZM59.736 41.097C58.938 41.059 58.273 41.667 58.235 42.446C58.197 43.225 58.824 43.89 59.603 43.928C60.363 43.947 61.028 43.377 61.066 42.617C61.123 41.8 60.515 41.135 59.736 41.097ZM72.485 39.672C72.504 38.874 71.858 38.228 71.079 38.228C70.3 38.228 69.635 38.893 69.654 39.653C69.654 40.413 70.281 41.04 71.041 41.078C71.801 41.116 72.485 40.451 72.485 39.672Z" fill="#FDFDFD"/>
<path d="M76.76 60.857C76.76 64.429 76.779 67.868 76.741 71.307C76.722 72.352 76.114 73.15 75.43 73.872C73.91 75.43 72.029 76.418 70.072 77.254C66.424 78.812 62.586 79.686 58.672 80.256C53.181 81.073 47.652 81.244 42.104 80.864C36.119 80.465 30.248 79.496 24.681 77.121C23.142 76.456 21.679 75.658 20.387 74.594C18.981 73.435 18.145 72.067 18.221 70.11C18.335 67.07 18.259 64.011 18.259 60.971C18.316 60.952 18.373 60.933 18.392 60.952C21.261 63.327 24.643 64.676 28.177 65.702C35.511 67.811 43.016 68.4 50.616 68.134C56.126 67.944 61.56 67.26 66.861 65.702C70.395 64.657 73.796 63.308 76.76 60.857ZM61.066 73.929C61.085 73.15 60.439 72.485 59.66 72.485C58.9 72.485 58.216 73.15 58.216 73.91C58.216 74.651 58.862 75.297 59.603 75.335C60.382 75.373 61.066 74.708 61.066 73.929ZM71.079 72.466C71.858 72.466 72.485 71.82 72.485 71.022C72.485 70.262 71.858 69.635 71.098 69.616C70.319 69.597 69.654 70.262 69.654 71.041C69.654 71.82 70.3 72.466 71.079 72.466ZM65.36 73.891C66.158 73.891 66.785 73.264 66.785 72.466C66.766 71.706 66.158 71.079 65.398 71.079C64.6 71.06 63.954 71.687 63.954 72.485C63.935 73.264 64.562 73.891 65.36 73.891Z" fill="#E2DBF8"/>
<path d="M59.679 56.791C60.458 56.81 61.085 57.475 61.066 58.254C61.047 59.014 60.401 59.641 59.641 59.641C58.862 59.641 58.197 58.976 58.216 58.197C58.235 57.418 58.9 56.772 59.679 56.791Z" fill="#6633F2"/>
<path d="M72.485 55.328C72.485 56.126 71.858 56.772 71.079 56.772C70.3 56.772 69.635 56.107 69.654 55.328C69.654 54.568 70.281 53.941 71.041 53.903C71.82 53.903 72.485 54.549 72.485 55.328Z" fill="#6633F2"/>
<path d="M63.954 56.734C63.973 55.936 64.638 55.328 65.436 55.366C66.215 55.404 66.804 56.05 66.785 56.81C66.766 57.608 66.101 58.197 65.284 58.178C64.524 58.159 63.935 57.513 63.954 56.734Z" fill="#6633F2"/>
<path d="M65.379 42.484C64.581 42.484 63.954 41.857 63.954 41.059C63.954 40.28 64.6 39.615 65.379 39.634C66.139 39.653 66.766 40.28 66.785 41.04C66.804 41.838 66.177 42.484 65.379 42.484Z" fill="#6633F2"/>
<path d="M59.736 41.097C60.515 41.135 61.123 41.8 61.066 42.598C61.009 43.358 60.363 43.947 59.603 43.909C58.805 43.871 58.178 43.206 58.235 42.427C58.273 41.667 58.938 41.059 59.736 41.097Z" fill="#6633F2"/>
<path d="M72.485 39.672C72.466 40.451 71.801 41.097 71.041 41.078C70.281 41.059 69.673 40.413 69.654 39.653C69.654 38.874 70.319 38.209 71.079 38.228C71.877 38.228 72.504 38.893 72.485 39.672Z" fill="#6633F2"/>
<path d="M61.066 73.929C61.047 74.708 60.382 75.354 59.603 75.335C58.862 75.316 58.216 74.651 58.216 73.91C58.216 73.131 58.881 72.466 59.66 72.485C60.439 72.485 61.085 73.15 61.066 73.929Z" fill="#6157A5"/>
<path d="M71.079 72.466C70.3 72.466 69.654 71.82 69.654 71.041C69.654 70.262 70.319 69.597 71.098 69.616C71.858 69.635 72.485 70.262 72.485 71.022C72.504 71.839 71.877 72.485 71.079 72.466Z" fill="#6633F2"/>
<path d="M65.36 73.891C64.562 73.891 63.935 73.264 63.935 72.466C63.935 71.668 64.581 71.06 65.379 71.06C66.139 71.079 66.766 71.687 66.766 72.447C66.785 73.264 66.158 73.891 65.36 73.891Z" fill="#6633F2"/>
</svg>
