<svg width="58" height="46" viewBox="0 0 58 46" fill="none" xmlns="http://www.w3.org/2000/svg">
<path d="M17.6691 45.1666C8.31884 45.1666 0.738892 37.5806 0.738892 28.2227C0.738892 20.467 6.3823 13.302 14.8474 11.9166C17.5028 5.54013 23.7872 0.833313 31.1171 0.833313C40.5061 0.833313 48.1803 8.18786 48.7079 17.4583C53.6907 19.6588 57.173 25.0592 57.173 30.9068C57.173 38.7823 50.8564 45.1666 43.0645 45.1666H17.6691Z" fill="#6633F2"/>
<path d="M16.1395 35.9451C18.8795 35.9451 21.1007 33.7016 21.1007 30.9341C21.1007 28.1666 18.8795 25.9231 16.1395 25.9231C13.3994 25.9231 11.1782 28.1666 11.1782 30.9341C11.1782 33.7016 13.3994 35.9451 16.1395 35.9451Z" stroke="white" stroke-width="2.66667"/>
<path d="M42.5994 35.9451C45.3394 35.9451 47.5607 33.7016 47.5607 30.9341C47.5607 28.1666 45.3394 25.9231 42.5994 25.9231C39.8594 25.9231 37.6382 28.1666 37.6382 30.9341C37.6382 33.7016 39.8594 35.9451 42.5994 35.9451Z" stroke="white" stroke-width="2.66667"/>
<path d="M29.3694 23.4176C32.5661 23.4176 35.1575 20.8002 35.1575 17.5715C35.1575 14.3428 32.5661 11.7253 29.3694 11.7253C26.1727 11.7253 23.5813 14.3428 23.5813 17.5715C23.5813 20.8002 26.1727 23.4176 29.3694 23.4176Z" stroke="white" stroke-width="2.66667"/>
<path d="M29.3695 24.2528V45.1678" stroke="white" stroke-width="2.66667"/>
<path d="M16.1395 36.7803V45.1319" stroke="white" stroke-width="2.66667"/>
<path d="M42.5995 36.7803V45.1319" stroke="white" stroke-width="2.66667"/>
</svg>
